<svg version="1.1" viewBox="0.0 0.0 960.0 720.0" fill="none" stroke="none" stroke-linecap="square" stroke-miterlimit="10" xmlns:xlink="http://www.w3.org/1999/xlink" xmlns="http://www.w3.org/2000/svg"><clipPath id="p.0"><path d="m0 0l960.0 0l0 720.0l-960.0 0l0 -720.0z" clip-rule="nonzero"/></clipPath><g clip-path="url(#p.0)"><path fill="#000000" fill-opacity="0.0" d="m0 0l960.0 0l0 720.0l-960.0 0z" fill-rule="evenodd"/><path fill="#bbe6e4" fill-opacity="0.2" d="m649.95544 204.8399l0 0c80.424805 80.424835 75.67975 215.56433 -10.59845 301.84253q-78.11023 78.11023 -156.22046 156.22046q-72.811035 -72.811035 -145.62204 -145.62201l0 0c-80.424835 -80.424866 -75.67978 -215.56436 10.598419 -301.84253l0 0c86.27817 -86.27818 221.41766 -91.02326 301.84253 -10.598434z" fill-rule="evenodd"/><path stroke="#084b83" stroke-width="24.0" stroke-linejoin="round" stroke-linecap="butt" d="m649.95544 204.8399l0 0c80.424805 80.424835 75.67975 215.56433 -10.59845 301.84253q-78.11023 78.11023 -156.22046 156.22046q-72.811035 -72.811035 -145.62204 -145.62201l0 0c-80.424835 -80.424866 -75.67978 -215.56436 10.598419 -301.84253l0 0c86.27817 -86.27818 221.41766 -91.02326 301.84253 -10.598434z" fill-rule="evenodd"/><path fill="#084b83" fill-opacity="0.8" d="m375.5118 353.58792l0 0c0 -67.06561 53.168823 -121.43306 118.75592 -121.43306l0 0c31.496002 0 61.702057 12.793793 83.973114 35.56691c22.271057 22.773132 34.782776 53.660095 34.782776 85.86615l0 0c0 67.06564 -53.168823 121.433075 -118.75589 121.433075l0 0c-65.5871 0 -118.75592 -54.36743 -118.75592 -121.433075z" fill-rule="evenodd"/><path stroke="#000000" stroke-width="1.0" stroke-linejoin="round" stroke-linecap="butt" d="m375.5118 353.58792l0 0c0 -67.06561 53.168823 -121.43306 118.75592 -121.43306l0 0c31.496002 0 61.702057 12.793793 83.973114 35.56691c22.271057 22.773132 34.782776 53.660095 34.782776 85.86615l0 0c0 67.06564 -53.168823 121.433075 -118.75589 121.433075l0 0c-65.5871 0 -118.75592 -54.36743 -118.75592 -121.433075z" fill-rule="evenodd"/></g></svg>