<svg version="1.1" viewBox="0.0 0.0 960.0 720.0" fill="none" stroke="none" stroke-linecap="square" stroke-miterlimit="10" xmlns:xlink="http://www.w3.org/1999/xlink" xmlns="http://www.w3.org/2000/svg"><clipPath id="p.0"><path d="m0 0l960.0 0l0 720.0l-960.0 0l0 -720.0z" clip-rule="nonzero"/></clipPath><g clip-path="url(#p.0)"><path fill="#000000" fill-opacity="0.0" d="m0 0l960.0 0l0 720.0l-960.0 0z" fill-rule="evenodd"/><path fill="#0035ff" fill-opacity="0.2" d="m178.66142 333.79004l0 0c0 -154.805 127.65172 -280.29922 285.1181 -280.29922l0 0c75.61798 0 148.13892 29.53144 201.60895 82.09773c53.47003 52.5663 83.509155 123.861496 83.509155 198.20149l0 0c0 154.80496 -127.65173 280.2992 -285.1181 280.2992l0 0c-157.4664 0 -285.1181 -125.49423 -285.1181 -280.2992z" fill-rule="evenodd"/><path stroke="#0000ff" stroke-width="2.0" stroke-linejoin="round" stroke-linecap="butt" d="m178.66142 333.79004l0 0c0 -154.805 127.65172 -280.29922 285.1181 -280.29922l0 0c75.61798 0 148.13892 29.53144 201.60895 82.09773c53.47003 52.5663 83.509155 123.861496 83.509155 198.20149l0 0c0 154.80496 -127.65173 280.2992 -285.1181 280.2992l0 0c-157.4664 0 -285.1181 -125.49423 -285.1181 -280.2992z" fill-rule="evenodd"/></g></svg>